<?xml version="1.0" encoding="UTF-8" standalone="no"?>
<svg
   version="1.0"
   width="54.700001pt"
   height="119.00001pt"
   viewBox="0 0 54.700001 119.00001"
   preserveAspectRatio="xMidYMid"
   id="svg6"
   xmlns="http://www.w3.org/2000/svg"
   xmlns:svg="http://www.w3.org/2000/svg">
  <defs
     id="defs6" />
  <g
     transform="matrix(0.1,0,0,-0.1,-112.1,290)"
     fill="#000000"
     stroke="none"
     id="g6">
    <path
       d="m 396,2909 c -32,-25 -35,-71 -6,-96 11,-10 20,-21 20,-24 0,-4 -27,-24 -60,-44 -70,-42 -84,-64 -77,-115 4,-29 0,-41 -15,-54 -11,-10 -17,-23 -14,-31 4,-11 -9,-15 -57,-17 -50,-2 -62,-6 -65,-21 -3,-12 4,-20 17,-24 26,-7 22,8 66,-298 20,-137 38,-262 41,-277 5,-24 2,-28 -19,-28 -28,0 -55,-26 -41,-40 5,-4 20,-10 34,-12 16,-2 26,-11 30,-28 5,-21 13,-26 55,-30 58,-7 86,-20 113,-55 19,-24 21,-25 34,-8 30,40 59,56 115,62 55,6 58,8 63,36 3,17 9,29 13,28 4,-2 16,-3 28,-3 34,0 21,44 -13,48 -16,2 -28,7 -28,11 0,18 80,567 85,579 2,6 11,12 19,12 21,0 30,19 16,35 -8,10 -31,15 -66,15 -46,0 -54,3 -54,19 0,10 -7,24 -16,32 -10,8 -14,22 -10,40 10,50 -11,86 -70,119 -29,17 -56,35 -59,41 -4,5 3,21 14,35 27,35 26,59 -4,89 -30,30 -54,31 -89,4 z m 74,-19 c 33,-33 19,-63 -32,-64 -48,-2 -66,35 -32,68 21,21 40,20 64,-4 z M 265,2375 c 24,-23 30,-45 25,-88 -1,-10 6,-27 15,-37 23,-25 44,-302 25,-325 -22,-27 -49,-18 -54,18 -12,69 -56,417 -56,436 0,28 16,26 45,-4 z m 212,3 c 27,-30 32,-47 22,-81 -5,-19 -4,-36 5,-50 11,-18 12,-52 5,-166 -5,-80 -14,-150 -20,-157 -13,-16 -76,-19 -98,-5 -10,6 -16,50 -23,161 -9,136 -8,153 7,170 13,15 14,22 5,40 -14,27 -6,64 20,90 26,26 52,25 77,-2 z m 183,15 c 0,-5 -14,-111 -30,-237 -17,-126 -30,-234 -30,-238 0,-5 -12,-8 -27,-6 -35,4 -37,15 -28,187 6,106 11,137 24,150 12,12 16,28 13,54 -3,30 1,42 26,67 29,29 52,39 52,23 z"
       id="path1" />
    <path
       d="m 2320,2907 c -13,-7 -29,-25 -34,-40 -8,-22 -6,-33 13,-57 12,-17 21,-39 19,-48 -2,-10 -31,-30 -67,-48 -69,-33 -86,-53 -77,-89 5,-19 2,-24 -16,-27 -15,-2 -26,-16 -37,-45 -11,-33 -20,-43 -37,-43 -29,0 -38,-27 -19,-56 22,-33 22,-489 0,-518 -16,-21 -4,-56 20,-56 7,0 21,-24 32,-57 18,-52 23,-58 50,-61 23,-2 34,-11 46,-38 l 17,-34 h 124 124 l 12,34 c 9,29 17,35 43,38 29,3 33,8 48,57 10,36 23,57 36,62 27,10 35,33 18,56 -22,28 -21,484 0,517 19,29 10,56 -19,56 -16,0 -25,10 -36,43 -12,33 -20,42 -38,41 -20,-1 -22,3 -17,27 9,41 -5,58 -76,93 -71,34 -84,59 -49,91 54,49 -13,136 -80,102 z m 75,-38 c 4,-5 4,-20 1,-32 -4,-19 -12,-22 -45,-22 -43,0 -56,13 -45,47 11,36 69,41 89,7 z m -1,-460 36,-21 v -214 -214 h -80 -80 v 214 214 l 33,20 c 41,26 49,26 91,1 z m -194,-14 30,-16 v -209 -210 h -39 c -22,0 -46,-3 -55,-6 -14,-5 -16,16 -16,202 0,203 1,209 23,231 27,27 22,26 57,8 z m 357,-7 c 23,-21 23,-25 23,-228 v -206 l -42,2 c -24,2 -49,3 -55,3 -10,1 -13,50 -13,211 v 209 l 28,15 c 35,19 32,20 59,-6 z"
       id="path2" />
    <path
       d="m 1352,2884 c -26,-18 -30,-69 -6,-95 14,-16 14,-20 -1,-48 -8,-17 -20,-31 -25,-31 -18,0 -48,-42 -54,-75 -4,-18 -18,-44 -31,-57 -14,-13 -25,-34 -25,-50 0,-16 -20,-59 -45,-97 l -44,-70 61,-223 c 34,-123 63,-251 66,-285 2,-37 8,-63 15,-63 16,0 67,-51 67,-67 0,-9 18,-13 63,-13 59,0 63,1 75,29 7,17 26,36 42,43 26,11 29,17 32,73 3,50 54,254 113,457 l 13,46 -44,72 c -24,40 -44,84 -44,100 0,16 -8,33 -20,41 -11,8 -28,37 -38,64 -12,34 -28,57 -49,70 -36,23 -48,62 -27,86 22,25 18,75 -8,93 -12,9 -32,16 -43,16 -11,0 -31,-7 -43,-16 z m 78,-18 c 6,-8 10,-25 8,-37 -2,-19 -10,-24 -45,-26 -41,-3 -43,-1 -43,25 0,15 5,33 12,40 16,16 53,15 68,-2 z m -4,-544 c 12,-9 29,-31 37,-47 14,-28 14,-46 -3,-185 -11,-85 -19,-163 -20,-172 0,-15 -9,-18 -45,-18 -25,0 -45,3 -45,8 0,4 -9,81 -20,171 -18,152 -18,166 -3,198 15,33 48,63 68,63 5,0 20,-8 31,-18 z m -175,-50 c 5,-12 18,-86 29,-165 11,-78 23,-157 27,-175 5,-29 3,-33 -12,-30 -13,2 -29,43 -66,173 -51,181 -55,205 -38,236 10,20 11,20 31,2 11,-10 24,-28 29,-41 z m 349,27 c 12,-27 9,-44 -19,-147 -63,-227 -71,-252 -86,-252 -8,0 -15,2 -15,4 0,2 11,84 25,182 20,140 30,186 48,211 12,18 25,33 28,33 4,0 12,-14 19,-31 z"
       id="path3" />
    <path
       d="m 415,1392 c -54,-11 -75,-81 -35,-117 11,-10 20,-24 20,-31 0,-11 -72,-51 -124,-68 -15,-5 -17,-13 -13,-40 4,-28 1,-36 -18,-46 -13,-7 -31,-27 -39,-45 -9,-18 -22,-38 -31,-45 -19,-16 -19,-54 0,-70 13,-10 15,-49 15,-235 0,-189 -2,-224 -15,-229 -19,-7 -19,-40 0,-56 8,-7 15,-19 15,-27 0,-8 15,-30 33,-48 19,-19 38,-48 43,-65 6,-23 22,-40 55,-58 25,-15 56,-35 69,-44 23,-17 23,-18 6,-37 -32,-35 2,-89 49,-77 30,8 44,50 26,78 -16,26 -2,42 61,74 48,24 68,48 68,81 0,10 14,26 30,35 20,11 33,28 37,48 3,18 12,34 19,37 18,7 18,47 0,62 -12,10 -14,53 -13,232 1,198 2,221 19,236 22,20 23,37 1,54 -9,8 -22,29 -30,47 -7,18 -26,40 -42,50 -22,13 -26,22 -21,37 11,30 -6,53 -49,65 -42,11 -91,45 -91,62 0,6 7,20 16,29 41,46 -2,124 -61,111 z m 50,-62 c 0,-34 -1,-35 -40,-35 -34,0 -40,3 -43,23 -5,33 16,54 52,50 28,-3 31,-6 31,-38 z m 8,-447 c 19,-42 22,-65 22,-178 0,-113 -3,-136 -22,-177 -38,-84 -79,-57 -102,67 -14,75 -14,145 0,220 23,124 64,151 102,68 z M 296,864 c 13,-44 15,-86 12,-188 -5,-131 -18,-186 -44,-186 -50,0 -60,359 -12,417 19,23 27,14 44,-43 z m 324,29 c 20,-41 25,-295 8,-353 -17,-56 -41,-63 -58,-18 -17,47 -24,242 -11,312 16,87 38,107 61,59 z"
       id="path4" />
    <path
       d="m 1340,1350 c -26,-26 -26,-65 0,-97 19,-24 19,-27 4,-44 -9,-10 -36,-28 -60,-40 -24,-11 -55,-34 -68,-50 -14,-16 -32,-29 -40,-29 -20,0 -21,-19 -1,-26 25,-10 18,-41 -45,-199 -32,-83 -67,-182 -76,-220 -30,-130 -4,-220 86,-296 49,-41 65,-79 35,-79 -8,0 -15,-9 -15,-20 0,-11 7,-20 15,-20 8,0 35,-16 61,-35 25,-19 51,-35 58,-35 16,0 76,-56 76,-70 0,-6 4,-10 9,-10 14,0 61,45 61,58 0,5 11,13 24,16 13,3 45,21 72,39 27,18 57,36 67,40 21,8 22,26 2,33 -23,9 -18,50 8,67 76,50 116,123 117,211 0,82 -22,164 -91,335 -62,153 -69,181 -44,181 8,0 15,7 15,15 0,8 -6,15 -13,15 -7,0 -28,15 -46,34 -19,19 -48,40 -65,47 -17,7 -40,23 -52,34 -20,22 -20,23 -2,45 26,32 24,85 -4,104 -31,22 -64,20 -88,-4 z m 79,-14 c 7,-8 11,-27 9,-42 -3,-25 -7,-27 -43,-27 -37,0 -40,2 -43,28 -6,46 50,74 77,41 z M 1207,838 c -52,-175 -60,-292 -28,-398 12,-40 20,-74 18,-76 -11,-11 -87,71 -97,104 -26,96 -8,196 73,400 29,73 45,102 57,102 15,0 12,-18 -23,-132 z m 261,15 c 51,-194 67,-353 41,-420 -22,-58 -41,-68 -125,-67 -63,1 -80,5 -92,20 -45,60 -52,128 -27,284 14,85 60,273 72,293 2,4 26,7 52,7 h 48 z m 122,40 c 69,-164 92,-245 93,-323 2,-98 -14,-144 -66,-181 -22,-16 -42,-28 -44,-26 -2,2 6,30 17,62 42,123 37,204 -26,417 -39,136 -38,128 -20,128 8,0 28,-33 46,-77 z"
       id="path5" />
    <path
       d="m 2299,1352 c -27,-23 -30,-73 -6,-100 23,-26 22,-29 -18,-36 -19,-4 -48,-18 -64,-32 -30,-25 -76,-127 -67,-149 6,-16 -45,-65 -67,-65 -19,0 -22,-11 -6,-27 8,-8 7,-27 -2,-69 -18,-83 -16,-284 4,-364 9,-37 12,-66 6,-68 -19,-7 -7,-38 24,-57 18,-11 32,-27 33,-35 0,-8 8,-38 18,-67 21,-63 71,-110 125,-119 33,-5 37,-9 33,-30 -4,-23 12,-54 29,-54 18,0 40,34 35,54 -5,19 1,24 40,34 25,7 58,25 73,40 28,28 66,125 56,142 -4,6 -3,10 2,10 4,1 23,14 42,30 27,23 32,32 23,43 -9,10 -8,31 3,83 18,87 19,269 1,354 -8,36 -10,66 -5,68 14,5 11,32 -3,32 -23,1 -70,50 -64,66 3,8 2,22 -3,32 -54,112 -56,114 -95,132 -23,10 -50,21 -60,25 -18,5 -18,6 2,26 65,60 -20,156 -89,101 z m 75,-18 c 34,-34 16,-70 -34,-68 -31,1 -35,4 -38,29 -6,46 41,71 72,39 z M 2176,868 c -22,-108 -27,-191 -17,-275 14,-116 15,-113 -13,-113 -22,0 -25,5 -36,87 -12,83 -9,237 6,306 5,22 12,27 36,27 29,0 30,-2 24,-32 z m 244,-15 c 19,-76 23,-211 8,-293 l -13,-75 -71,-3 -71,-3 -12,57 c -19,96 -9,316 16,357 2,4 33,7 67,7 h 64 z m 144,38 c 16,-25 26,-201 16,-287 -12,-114 -16,-124 -47,-124 -22,0 -24,3 -19,23 16,50 18,252 4,320 -8,37 -12,69 -10,72 9,8 50,6 56,-4 z"
       id="path6" />
  </g>
</svg>
