<?xml version="1.0" encoding="UTF-8" standalone="no"?>
<svg
   version="1.0"
   width="66.442177pt"
   height="132.58786pt"
   viewBox="0 0 66.442177 132.58786"
   preserveAspectRatio="xMidYMid"
   id="svg6"
   xmlns="http://www.w3.org/2000/svg"
   xmlns:svg="http://www.w3.org/2000/svg">
  <defs
     id="defs6" />
  <g
     transform="matrix(0.1,0,0,-0.1,-243.55783,170.87642)"
     fill="#000000"
     stroke="none"
     id="g6">
    <path
       d="m 743,3205 c -39,-27 -38,-82 4,-123 7,-7 13,-18 13,-23 0,-5 -58,-69 -130,-143 L 500,2782 v -54 c 0,-36 7,-64 20,-86 19,-30 21,-52 23,-240 2,-193 1,-208 -17,-223 -27,-23 -14,-49 24,-49 22,0 38,-9 56,-30 16,-19 38,-31 62,-35 20,-3 55,-14 77,-24 39,-18 41,-18 75,0 19,11 45,19 58,19 31,0 79,26 92,50 7,14 21,20 44,20 43,0 57,27 27,52 -20,15 -21,26 -21,212 0,190 1,198 25,246 27,53 32,108 14,143 -7,12 -65,77 -130,144 -66,66 -119,126 -119,131 0,6 6,17 13,24 55,55 32,138 -38,138 -11,0 -30,-7 -42,-15 z m 69,-17 c 20,-17 28,-42 18,-58 -9,-15 -90,-24 -90,-10 0,5 -3,15 -6,23 -6,17 28,57 49,57 7,0 20,-6 29,-12 z M 678,2554 c 21,-15 22,-21 22,-175 v -159 h -55 -55 v 159 c 0,132 3,162 16,175 20,20 43,20 72,0 z m 152,-24 c 5,-10 10,-84 10,-164 v -146 h -55 -55 v 153 c 0,83 4,157 8,163 25,37 71,34 92,-6 z m 132,23 c 16,-14 18,-34 18,-175 v -158 h -55 -55 v 157 c 0,132 3,159 17,175 20,22 51,23 75,1 z"
       id="path1" />
    <path
       d="m 2720,3200 c -28,-28 -25,-72 6,-109 l 26,-31 -26,-34 c -31,-41 -73,-68 -142,-90 -66,-21 -98,-55 -98,-103 0,-28 7,-42 32,-63 l 32,-26 v -292 -291 l 55,-38 c 30,-21 55,-42 55,-46 0,-4 -7,-21 -15,-37 l -16,-30 h 142 141 l -16,25 c -25,38 -20,49 39,90 l 55,37 v 294 c 0,283 1,294 20,304 33,18 52,64 39,97 -17,44 -36,60 -107,85 -64,22 -152,89 -152,115 0,5 11,22 25,37 15,16 25,39 25,56 0,60 -78,92 -120,50 z m 84,-16 c 34,-33 16,-69 -34,-69 -19,0 -38,4 -42,10 -21,28 6,75 42,75 10,0 26,-7 34,-16 z m -169,-734 v -260 h -27 -28 v 260 260 h 28 27 z m 215,0 v -260 h -80 -80 v 260 260 h 80 80 z m 110,0 v -260 h -30 -30 v 260 260 h 30 30 z"
       id="path2" />
    <path
       d="m 1745,3175 c -31,-30 -32,-64 -4,-99 11,-15 19,-33 16,-40 -3,-8 -30,-31 -61,-53 -60,-42 -81,-76 -70,-116 5,-21 3,-27 -10,-27 -10,0 -19,-11 -22,-30 -6,-26 -11,-30 -41,-30 -43,0 -56,-26 -25,-51 22,-17 22,-21 22,-327 v -311 l -22,-3 c -15,-2 -23,-10 -23,-23 0,-19 8,-20 288,-23 l 287,-2 v 25 c 0,20 -5,25 -25,25 h -25 v 311 c 0,307 0,311 22,328 31,25 18,51 -25,51 -30,0 -35,4 -40,30 -4,18 -13,30 -23,30 -12,0 -14,6 -9,29 9,41 -6,64 -71,112 -66,49 -73,63 -45,93 30,32 28,79 -5,105 -35,27 -59,26 -89,-4 z m 88,-19 c 4,-6 6,-22 5,-36 -3,-21 -8,-24 -43,-26 -57,-2 -73,28 -34,67 21,21 56,19 72,-5 z m -201,-513 c 22,-25 26,-45 17,-70 -5,-15 -3,-25 7,-33 11,-10 14,-48 14,-194 0,-196 -2,-206 -52,-206 h -28 v 260 c 0,211 3,260 13,260 8,0 21,-8 29,-17 z m 204,-8 c 10,-15 14,-37 12,-55 -3,-18 1,-35 9,-41 10,-9 13,-53 13,-184 0,-96 -3,-180 -6,-189 -9,-23 -139,-23 -148,0 -12,31 -7,359 6,372 7,7 11,28 10,47 -6,66 70,102 104,50 z m 154,-235 v -260 h -28 c -15,0 -33,5 -40,12 -15,15 -17,374 -3,383 6,3 9,23 8,45 -1,40 23,80 50,80 10,0 13,-49 13,-260 z"
       id="path3" />
    <path
       d="m 735,1705 c -30,-29 -32,-68 -5,-95 l 20,-20 -62,-59 -63,-59 1,-58 c 0,-55 -2,-59 -43,-97 l -43,-40 V 1007 737 l 40,-34 c 38,-33 40,-37 40,-91 0,-71 24,-113 85,-150 24,-15 45,-34 45,-43 0,-9 7,-22 16,-30 21,-17 49,0 48,29 0,14 8,24 25,30 72,25 117,96 109,173 -3,37 0,44 39,80 l 43,39 v 268 268 l -46,38 c -45,37 -46,40 -39,82 8,55 -8,87 -76,148 -31,28 -48,50 -42,54 57,38 19,132 -53,132 -8,0 -26,-11 -39,-25 z m 74,-5 c 4,0 13,-10 18,-23 15,-31 -1,-60 -28,-52 -11,4 -26,1 -34,-5 -11,-9 -16,-7 -24,9 -6,11 -11,24 -11,30 0,19 41,53 57,47 8,-3 18,-6 22,-6 z m -151,-692 2,-248 h -50 -50 v 243 c 0,134 3,247 7,251 4,4 25,6 48,4 l 40,-3 z m 190,0 2,-248 h -65 -65 v 243 c 0,134 3,247 7,251 4,4 32,6 63,4 l 55,-3 z m 152,2 V 760 h -45 -45 v 250 250 h 45 45 z"
       id="path4" />
    <path
       d="m 1740,1710 c -26,-26 -26,-74 2,-102 23,-23 26,-19 -36,-63 -16,-12 -17,-17 -7,-29 10,-12 2,-30 -48,-103 -33,-48 -83,-117 -111,-153 -59,-77 -82,-140 -81,-221 1,-62 16,-110 52,-160 17,-24 19,-32 8,-45 -9,-11 -9,-18 -1,-26 7,-7 9,-32 6,-67 -7,-68 11,-97 91,-142 29,-16 65,-41 80,-54 24,-23 25,-27 11,-41 -20,-19 -15,-28 24,-44 23,-10 29,-17 25,-34 -8,-31 8,-48 41,-44 25,3 29,7 28,34 -1,26 4,34 32,48 37,17 43,33 18,43 -22,8 24,54 92,93 79,44 97,73 91,142 -3,33 -1,60 6,67 7,7 6,15 -3,26 -11,13 -10,18 3,33 57,62 74,197 38,292 -11,28 -44,81 -74,118 -95,117 -160,221 -148,236 9,10 3,21 -24,45 l -35,31 20,20 c 26,26 26,74 0,100 -11,11 -33,20 -50,20 -17,0 -39,-9 -50,-20 z m 84,-16 c 34,-33 16,-69 -34,-69 -19,0 -38,4 -42,10 -21,28 6,75 42,75 10,0 26,-7 34,-16 z m -130,-310 c -9,-21 -41,-92 -71,-157 -69,-151 -77,-217 -37,-322 5,-13 2,-16 -17,-13 -29,4 -66,65 -75,125 -9,63 19,147 79,228 28,39 69,96 91,127 22,32 41,56 43,54 2,-1 -4,-20 -13,-42 z m 241,-36 c 128,-180 135,-194 146,-254 13,-66 4,-116 -31,-171 -21,-35 -68,-49 -56,-17 35,90 32,169 -9,260 -82,181 -113,254 -107,254 4,-1 30,-33 57,-72 z m -97,-76 c 10,-20 35,-67 55,-104 58,-103 60,-193 6,-262 -19,-24 -26,-26 -109,-26 -84,0 -90,1 -109,26 -55,71 -51,164 13,274 36,63 59,117 93,220 3,8 11,-9 19,-38 7,-29 22,-69 32,-90 z M 1613,718 c 3,-22 15,-54 27,-70 28,-38 3,-38 -38,0 -48,45 -56,112 -14,112 15,0 21,-9 25,-42 z m 277,8 c 0,-21 -11,-41 -34,-66 -19,-19 -41,-48 -50,-64 -14,-27 -15,-27 -25,-8 -6,12 -29,42 -51,67 -26,30 -40,56 -40,74 v 28 h 100 l 100,-1 z m 128,11 c 6,-29 -18,-76 -50,-98 -38,-27 -44,-20 -19,22 12,19 21,49 21,67 0,29 3,33 22,30 13,-2 24,-11 26,-21 z"
       id="path5" />
    <path
       d="m 2733,1700 c -49,-20 -58,-93 -17,-137 l 26,-28 -44,-11 c -63,-16 -101,-38 -138,-80 -37,-42 -60,-92 -60,-128 0,-17 -7,-26 -25,-30 -62,-16 -47,-96 18,-96 h 32 l -3,-197 c -1,-109 -2,-213 -2,-230 0,-28 -4,-33 -23,-33 -26,0 -52,-17 -60,-41 -6,-19 18,-59 37,-59 7,0 18,-23 25,-54 36,-163 237,-242 406,-161 27,13 57,30 65,37 32,27 60,77 70,125 8,35 17,51 33,58 29,13 36,64 11,82 -10,7 -30,13 -46,13 h -28 v 230 230 h 33 c 41,0 57,15 57,53 0,23 -6,31 -30,40 -20,7 -30,18 -30,32 -1,28 -37,105 -63,133 -32,34 -82,63 -134,76 l -45,12 26,31 c 41,49 32,103 -21,131 -25,14 -40,14 -70,2 z m 83,-45 c 27,-41 8,-69 -45,-70 -36,-1 -45,3 -54,22 -7,17 -6,28 7,48 23,34 69,34 92,0 z M 2610,965 V 780 h -30 -30 v 185 185 h 30 30 z m 258,-2 2,-183 h -100 -100 v 185 186 l 98,-3 97,-3 z m 120,0 2,-183 h -30 -30 v 186 185 l 28,-3 27,-3 z"
       id="path6" />
  </g>
</svg>
